<?xml version="1.0" encoding="utf-8"?>
<!-- Generator: Adobe Illustrator 15.0.0, SVG Export Plug-In  -->
<!DOCTYPE svg PUBLIC "-//W3C//DTD SVG 1.1//EN" "http://www.w3.org/Graphics/SVG/1.1/DTD/svg11.dtd" [
	<!ENTITY ns_flows "http://ns.adobe.com/Flows/1.0/">
]>
<svg version="1.1"
	 xmlns="http://www.w3.org/2000/svg" xmlns:xlink="http://www.w3.org/1999/xlink" xmlns:a="http://ns.adobe.com/AdobeSVGViewerExtensions/3.0/"
	 x="0px" y="0px" width="24px" height="24px" viewBox="0 0 24 24" enable-background="new 0 0 24 24" xml:space="preserve">
<defs>
</defs>
<path fill="#E5E5E5" d="M9,7h2V5H9 M10,18c-4.41,0-8-3.59-8-8s3.59-8,8-8s8,3.59,8,8S14.41,18,10,18 M10,0C4.477,0,0,4.477,0,10
	c0,5.523,4.477,10,10,10c5.523,0,10-4.477,10-10C20,4.477,15.523,0,10,0 M9,15h2V9H9V15z"/>
</svg>
