<?xml version="1.0" encoding="utf-8"?>
<!-- Generator: Adobe Illustrator 15.0.0, SVG Export Plug-In  -->
<!DOCTYPE svg PUBLIC "-//W3C//DTD SVG 1.1//EN" "http://www.w3.org/Graphics/SVG/1.1/DTD/svg11.dtd" [
	<!ENTITY ns_flows "http://ns.adobe.com/Flows/1.0/">
]>
<svg version="1.1"
	 xmlns="http://www.w3.org/2000/svg" xmlns:xlink="http://www.w3.org/1999/xlink" xmlns:a="http://ns.adobe.com/AdobeSVGViewerExtensions/3.0/"
	 x="0px" y="0px" width="24px" height="24px" viewBox="0 0 24 24" enable-background="new 0 0 24 24" xml:space="preserve">
<defs>
</defs>
<path fill="#E5E5E5" d="M17,5H7V3h10 M13,13H7v-2h6 M17,9H7V7h10 M18,0H6C4.896,0,4,0.896,4,2v12c0,1.104,0.896,2,2,2h12
	c1.104,0,2-0.896,2-2V2C20,0.896,19.104,0,18,0 M2,4H0v14c0,1.104,0.896,2,2,2h14v-2H2V4z"/>
</svg>
