<?xml version="1.0" encoding="utf-8"?>
<!-- Generator: Adobe Illustrator 15.0.0, SVG Export Plug-In  -->
<!DOCTYPE svg PUBLIC "-//W3C//DTD SVG 1.1//EN" "http://www.w3.org/Graphics/SVG/1.1/DTD/svg11.dtd" [
	<!ENTITY ns_flows "http://ns.adobe.com/Flows/1.0/">
]>
<svg version="1.1"
	 xmlns="http://www.w3.org/2000/svg" xmlns:xlink="http://www.w3.org/1999/xlink" xmlns:a="http://ns.adobe.com/AdobeSVGViewerExtensions/3.0/"
	 x="0px" y="0px" width="24px" height="24px" viewBox="-2 -2 24 24" enable-background="new -2 -2 24 24" xml:space="preserve">
<defs>
</defs>
<path fill="#888888" d="M10,17.2c-2.5,0-4.71-1.28-6-3.2c0.03-2,4-3.1,6-3.1s5.971,1.1,6,3.1C14.71,15.92,12.5,17.2,10,17.2 M10,3
	c1.656,0,3,1.343,3,3s-1.344,3-3,3C8.343,9,7,7.657,7,6S8.343,3,10,3 M10,0C4.477,0,0,4.477,0,10c0,5.523,4.477,10,10,10
	c5.523,0,10-4.477,10-10C20,4.47,15.5,0,10,0z"/>
</svg>
