<?xml version="1.0" encoding="utf-8"?>
<!-- Generator: Adobe Illustrator 15.0.0, SVG Export Plug-In  -->
<!DOCTYPE svg PUBLIC "-//W3C//DTD SVG 1.1//EN" "http://www.w3.org/Graphics/SVG/1.1/DTD/svg11.dtd" [
	<!ENTITY ns_flows "http://ns.adobe.com/Flows/1.0/">
]>
<svg version="1.1"
	 xmlns="http://www.w3.org/2000/svg" xmlns:xlink="http://www.w3.org/1999/xlink" xmlns:a="http://ns.adobe.com/AdobeSVGViewerExtensions/3.0/"
	 x="0px" y="0px" width="24px" height="24px" viewBox="-4 -4 24 24" enable-background="new -4 -4 24 24" xml:space="preserve">
<defs>
</defs>
<path fill="#888888" d="M8,9c-2.67,0-8,1.33-8,4v3h16v-3C16,10.33,10.67,9,8,9 M8,0C5.791,0,4,1.791,4,4s1.791,4,4,4s4-1.791,4-4
	S10.209,0,8,0 M8,10.9c2.971,0,6.1,1.459,6.1,2.1v1.1H1.9V13C1.9,12.359,5,10.9,8,10.9 M8,1.9c1.16,0,2.1,0.94,2.1,2.1l0,0
	c0,1.16-0.939,2.1-2.1,2.1l0,0C6.84,6.1,5.9,5.16,5.9,4l0,0C5.9,2.84,6.84,1.9,8,1.9L8,1.9z"/>
</svg>
