<?xml version="1.0" encoding="utf-8"?>
<!-- Generator: Adobe Illustrator 15.0.0, SVG Export Plug-In  -->
<!DOCTYPE svg PUBLIC "-//W3C//DTD SVG 1.1//EN" "http://www.w3.org/Graphics/SVG/1.1/DTD/svg11.dtd" [
	<!ENTITY ns_flows "http://ns.adobe.com/Flows/1.0/">
]>
<svg version="1.1"
	 xmlns="http://www.w3.org/2000/svg" xmlns:xlink="http://www.w3.org/1999/xlink" xmlns:a="http://ns.adobe.com/AdobeSVGViewerExtensions/3.0/"
	 x="0px" y="0px" width="24px" height="24px" viewBox="-2 -2 24 24" enable-background="new -2 -2 24 24" xml:space="preserve">
<defs>
</defs>
<path fill="#888888" d="M20,16v4h-4v-3h-3v-3h-3l-2.26-2.26C7.19,11.91,6.61,12,6,12c-3.313,0-6-2.687-6-6s2.687-6,6-6s6,2.687,6,6
	c0,0.61-0.09,1.19-0.26,1.74L20,16 M5,3C3.896,3,3,3.896,3,5s0.896,2,2,2s2-0.896,2-2S6.104,3,5,3z"/>
</svg>
