<?xml version="1.0" encoding="utf-8"?>
<!-- Generator: Adobe Illustrator 15.0.0, SVG Export Plug-In  -->
<!DOCTYPE svg PUBLIC "-//W3C//DTD SVG 1.1//EN" "http://www.w3.org/Graphics/SVG/1.1/DTD/svg11.dtd" [
	<!ENTITY ns_flows "http://ns.adobe.com/Flows/1.0/">
]>
<svg version="1.1"
	 xmlns="http://www.w3.org/2000/svg" xmlns:xlink="http://www.w3.org/1999/xlink" xmlns:a="http://ns.adobe.com/AdobeSVGViewerExtensions/3.0/"
	 x="0px" y="0px" width="24px" height="24px" viewBox="-2 -1 24 24" enable-background="new -2 -1 24 24" xml:space="preserve">
<defs>
</defs>
<path fill="#888888" d="M18.5,10H17V6c0-1.11-0.9-2-2-2h-4V2.5C11,1.119,9.881,0,8.5,0S6,1.119,6,2.5V4H2C0.896,4,0,4.896,0,6v3.8
	h1.5c1.5,0,2.7,1.2,2.7,2.7S3,15.2,1.5,15.2H0V19c0,1.104,0.896,2,2,2h3.8v-1.5c0-1.5,1.2-2.7,2.7-2.7s2.7,1.2,2.7,2.7V21H15
	c1.104,0,2-0.896,2-2v-4h1.5c1.381,0,2.5-1.119,2.5-2.5S19.881,10,18.5,10z"/>
</svg>
