<?xml version="1.0" encoding="utf-8"?>
<!-- Generator: Adobe Illustrator 15.0.0, SVG Export Plug-In  -->
<!DOCTYPE svg PUBLIC "-//W3C//DTD SVG 1.1//EN" "http://www.w3.org/Graphics/SVG/1.1/DTD/svg11.dtd" [
	<!ENTITY ns_flows "http://ns.adobe.com/Flows/1.0/">
]>
<svg version="1.1"
	 xmlns="http://www.w3.org/2000/svg" xmlns:xlink="http://www.w3.org/1999/xlink" xmlns:a="http://ns.adobe.com/AdobeSVGViewerExtensions/3.0/"
	 x="0px" y="0px" width="24px" height="24px" viewBox="-2.271 -2 24 24" enable-background="new -2.271 -2 24 24"
	 xml:space="preserve">
<defs>
</defs>
<path fill="#888888" d="M9.729,13.5c-1.933,0-3.5-1.566-3.5-3.5c0-1.933,1.567-3.5,3.5-3.5c1.934,0,3.5,1.567,3.5,3.5
	C13.229,11.934,11.663,13.5,9.729,13.5 M17.159,10.97c0.041-0.319,0.07-0.64,0.07-0.97s-0.029-0.66-0.07-1l2.11-1.63
	c0.19-0.15,0.239-0.42,0.12-0.64l-2-3.46c-0.12-0.22-0.391-0.31-0.61-0.22l-2.489,1c-0.521-0.39-1.061-0.73-1.69-0.98l-0.37-2.65
	c-0.04-0.24-0.25-0.42-0.5-0.42h-4c-0.25,0-0.46,0.18-0.5,0.42l-0.37,2.65c-0.63,0.25-1.17,0.59-1.69,0.98l-2.49-1
	c-0.22-0.09-0.49,0-0.61,0.22l-2,3.46C-0.061,6.95,0,7.22,0.189,7.37L2.299,9c-0.04,0.34-0.07,0.67-0.07,1s0.03,0.65,0.07,0.97
	l-2.11,1.66c-0.19,0.15-0.25,0.42-0.12,0.64l2,3.461c0.12,0.22,0.39,0.3,0.61,0.22l2.49-1.011c0.52,0.4,1.06,0.74,1.69,0.99
	l0.37,2.65c0.04,0.24,0.25,0.42,0.5,0.42h4c0.25,0,0.46-0.18,0.5-0.42l0.37-2.65c0.63-0.26,1.17-0.59,1.69-0.99l2.489,1.011
	c0.22,0.08,0.49,0,0.61-0.22l2-3.461c0.119-0.22,0.07-0.489-0.12-0.64L17.159,10.97z"/>
</svg>
